<mxfile host="app.diagrams.net" modified="2022-09-26T14:56:40.465Z" agent="5.0 (Windows NT 10.0; Win64; x64) AppleWebKit/537.36 (KHTML, like Gecko) Chrome/105.0.0.0 Safari/537.36 Edg/105.0.1343.42" etag="CN9dJEGahOMoQjXxzO8A" version="20.3.6" type="github">
  <diagram id="C5RBs43oDa-KdzZeNtuy" name="Page-1">
    <mxGraphModel dx="1020" dy="607" grid="1" gridSize="10" guides="1" tooltips="1" connect="1" arrows="1" fold="1" page="1" pageScale="1" pageWidth="827" pageHeight="1169" math="0" shadow="0">
      <root>
        <mxCell id="WIyWlLk6GJQsqaUBKTNV-0" />
        <mxCell id="WIyWlLk6GJQsqaUBKTNV-1" parent="WIyWlLk6GJQsqaUBKTNV-0" />
        <mxCell id="AGSEpq_tyCsoQ4AG02cv-7" value="" style="edgeStyle=orthogonalEdgeStyle;rounded=0;orthogonalLoop=1;jettySize=auto;html=1;" edge="1" parent="WIyWlLk6GJQsqaUBKTNV-1" source="WIyWlLk6GJQsqaUBKTNV-3" target="AGSEpq_tyCsoQ4AG02cv-0">
          <mxGeometry relative="1" as="geometry" />
        </mxCell>
        <mxCell id="WIyWlLk6GJQsqaUBKTNV-3" value="&lt;p align=&quot;center&quot; class=&quot;MsoNormal&quot;&gt;Start&lt;/p&gt;" style="rounded=1;whiteSpace=wrap;html=1;fontSize=12;glass=0;strokeWidth=1;shadow=0;" parent="WIyWlLk6GJQsqaUBKTNV-1" vertex="1">
          <mxGeometry x="160" y="80" width="120" height="40" as="geometry" />
        </mxCell>
        <mxCell id="AGSEpq_tyCsoQ4AG02cv-6" value="" style="edgeStyle=orthogonalEdgeStyle;rounded=0;orthogonalLoop=1;jettySize=auto;html=1;" edge="1" parent="WIyWlLk6GJQsqaUBKTNV-1" source="AGSEpq_tyCsoQ4AG02cv-0" target="AGSEpq_tyCsoQ4AG02cv-4">
          <mxGeometry relative="1" as="geometry" />
        </mxCell>
        <mxCell id="AGSEpq_tyCsoQ4AG02cv-0" value="&lt;br&gt;&lt;br&gt;&lt;br&gt;&lt;p style=&quot;&quot; class=&quot;MsoNormal&quot;&gt;&lt;br&gt;&lt;/p&gt;&lt;p style=&quot;&quot; class=&quot;MsoNormal&quot;&gt;&lt;span style=&quot;background-color: initial;&quot;&gt;Enter= n&lt;/span&gt;&lt;br&gt;&lt;/p&gt;&lt;br&gt;&lt;br&gt;&lt;br&gt;&lt;br&gt;&lt;br&gt;" style="shape=parallelogram;perimeter=parallelogramPerimeter;whiteSpace=wrap;html=1;fixedSize=1;align=center;" vertex="1" parent="WIyWlLk6GJQsqaUBKTNV-1">
          <mxGeometry x="160" y="170" width="120" height="60" as="geometry" />
        </mxCell>
        <mxCell id="AGSEpq_tyCsoQ4AG02cv-9" value="" style="edgeStyle=orthogonalEdgeStyle;rounded=0;orthogonalLoop=1;jettySize=auto;html=1;fontSize=11;" edge="1" parent="WIyWlLk6GJQsqaUBKTNV-1" source="AGSEpq_tyCsoQ4AG02cv-4" target="AGSEpq_tyCsoQ4AG02cv-8">
          <mxGeometry relative="1" as="geometry" />
        </mxCell>
        <mxCell id="AGSEpq_tyCsoQ4AG02cv-4" value="Sum = 0&lt;br&gt;i = 1" style="rounded=0;whiteSpace=wrap;html=1;" vertex="1" parent="WIyWlLk6GJQsqaUBKTNV-1">
          <mxGeometry x="160" y="270" width="120" height="60" as="geometry" />
        </mxCell>
        <mxCell id="AGSEpq_tyCsoQ4AG02cv-11" value="" style="edgeStyle=orthogonalEdgeStyle;rounded=0;orthogonalLoop=1;jettySize=auto;html=1;fontSize=11;" edge="1" parent="WIyWlLk6GJQsqaUBKTNV-1" source="AGSEpq_tyCsoQ4AG02cv-8" target="AGSEpq_tyCsoQ4AG02cv-10">
          <mxGeometry relative="1" as="geometry" />
        </mxCell>
        <mxCell id="AGSEpq_tyCsoQ4AG02cv-8" value="Sum = Sum + ( i*i)&lt;br&gt;i = i+1" style="rounded=0;whiteSpace=wrap;html=1;" vertex="1" parent="WIyWlLk6GJQsqaUBKTNV-1">
          <mxGeometry x="160" y="380" width="120" height="50" as="geometry" />
        </mxCell>
        <mxCell id="AGSEpq_tyCsoQ4AG02cv-13" value="" style="edgeStyle=orthogonalEdgeStyle;rounded=0;orthogonalLoop=1;jettySize=auto;html=1;fontSize=11;" edge="1" parent="WIyWlLk6GJQsqaUBKTNV-1" source="AGSEpq_tyCsoQ4AG02cv-10" target="AGSEpq_tyCsoQ4AG02cv-12">
          <mxGeometry relative="1" as="geometry" />
        </mxCell>
        <mxCell id="AGSEpq_tyCsoQ4AG02cv-10" value="Print Sum" style="shape=parallelogram;perimeter=parallelogramPerimeter;whiteSpace=wrap;html=1;fixedSize=1;rounded=0;" vertex="1" parent="WIyWlLk6GJQsqaUBKTNV-1">
          <mxGeometry x="160" y="470" width="120" height="50" as="geometry" />
        </mxCell>
        <mxCell id="AGSEpq_tyCsoQ4AG02cv-12" value="Stop" style="rounded=1;whiteSpace=wrap;html=1;fontSize=11;" vertex="1" parent="WIyWlLk6GJQsqaUBKTNV-1">
          <mxGeometry x="160" y="560" width="120" height="40" as="geometry" />
        </mxCell>
        <mxCell id="AGSEpq_tyCsoQ4AG02cv-15" value="&lt;p class=&quot;MsoNormal&quot;&gt;&lt;strong&gt;&lt;span&gt;&lt;font style=&quot;font-size: 14px;&quot;&gt;Calculate the&lt;br&gt;sum of squares of given input of numbers&lt;/font&gt;&lt;/span&gt;&lt;/strong&gt;&lt;/p&gt;" style="text;html=1;align=center;verticalAlign=middle;resizable=0;points=[];autosize=1;strokeColor=none;fillColor=none;fontSize=11;perimeterSpacing=0;" vertex="1" parent="WIyWlLk6GJQsqaUBKTNV-1">
          <mxGeometry x="360" y="10" width="300" height="70" as="geometry" />
        </mxCell>
      </root>
    </mxGraphModel>
  </diagram>
</mxfile>
